<svg width="24" height="24" viewBox="0 0 24 24" fill="none" xmlns="http://www.w3.org/2000/svg">
<path d="M11.9999 0.75C10.1844 0.749592 8.41954 1.34803 6.97874 2.45256C5.53793 3.55709 4.50169 5.10602 4.03062 6.8593C3.55955 8.61258 3.67995 10.4723 4.37317 12.1502C5.06639 13.8281 6.2937 15.2305 7.8649 16.14C8.5509 16.538 8.9799 17.148 8.9989 17.763C9.00415 17.9277 9.06351 18.0861 9.1678 18.2138C9.27209 18.3414 9.41552 18.4311 9.5759 18.469C9.9279 18.552 10.2859 18.617 10.6499 18.664C10.9729 18.705 11.2499 18.446 11.2499 18.12V13.459C10.9339 13.4243 10.6208 13.3671 10.3129 13.288C10.2175 13.2634 10.1279 13.2203 10.0491 13.1611C9.97037 13.1019 9.90406 13.0278 9.85396 12.943C9.80386 12.8582 9.77097 12.7643 9.75714 12.6668C9.74332 12.5692 9.74885 12.4699 9.7734 12.3745C9.79796 12.2791 9.84107 12.1895 9.90027 12.1107C9.95946 12.032 10.0336 11.9657 10.1184 11.9156C10.2032 11.8655 10.2971 11.8326 10.3946 11.8187C10.4922 11.8049 10.5915 11.8104 10.6869 11.835C11.5482 12.057 12.4516 12.057 13.3129 11.835C13.4093 11.8072 13.5102 11.7991 13.6098 11.811C13.7094 11.8229 13.8055 11.8547 13.8926 11.9045C13.9797 11.9542 14.0559 12.0209 14.1168 12.1007C14.1776 12.1804 14.2218 12.2715 14.2469 12.3686C14.2719 12.4657 14.2772 12.5669 14.2624 12.6661C14.2476 12.7653 14.2131 12.8605 14.1609 12.9461C14.1087 13.0317 14.0399 13.106 13.9584 13.1646C13.877 13.2231 13.7847 13.2648 13.6869 13.287C13.379 13.3665 13.0659 13.4239 12.7499 13.459V18.119C12.7499 18.446 13.0269 18.705 13.3499 18.664C13.7139 18.617 14.0719 18.552 14.4239 18.469C14.5843 18.4311 14.7277 18.3414 14.832 18.2138C14.9363 18.0861 14.9957 17.9277 15.0009 17.763C15.0209 17.148 15.4489 16.538 16.1349 16.14C17.7061 15.2305 18.9334 13.8281 19.6266 12.1502C20.3199 10.4723 20.4403 8.61258 19.9692 6.8593C19.4981 5.10602 18.4619 3.55709 17.0211 2.45256C15.5803 1.34803 13.8154 0.749592 11.9999 0.75V0.75Z" fill="black"/>
<path fill-rule="evenodd" clip-rule="evenodd" d="M9.01303 19.8997C9.03139 19.8029 9.06865 19.7107 9.12267 19.6283C9.17668 19.5459 9.2464 19.4749 9.32785 19.4195C9.40929 19.3641 9.50086 19.3252 9.59732 19.3052C9.69378 19.2851 9.79324 19.2843 9.89003 19.3027C11.2843 19.5672 12.7158 19.5672 14.11 19.3027C14.208 19.2811 14.3093 19.2794 14.4079 19.2977C14.5066 19.316 14.6005 19.3539 14.6843 19.4091C14.768 19.4643 14.8398 19.5358 14.8954 19.6193C14.951 19.7028 14.9894 19.7966 15.0081 19.8951C15.0268 19.9936 15.0256 20.0949 15.0045 20.193C14.9834 20.2911 14.9428 20.3839 14.8852 20.466C14.8275 20.5481 14.754 20.6178 14.669 20.671C14.5839 20.7242 14.4891 20.7598 14.39 20.7757C12.8108 21.0754 11.1893 21.0754 9.61003 20.7757C9.41475 20.7386 9.24218 20.6255 9.13024 20.4612C9.0183 20.297 8.97614 20.095 9.01303 19.8997V19.8997ZM9.75403 22.3437C9.76426 22.2457 9.7937 22.1507 9.84065 22.0641C9.8876 21.9775 9.95115 21.901 10.0277 21.839C10.1042 21.777 10.1922 21.7306 10.2866 21.7026C10.381 21.6746 10.4801 21.6654 10.578 21.6757C11.5235 21.7745 12.4766 21.7745 13.422 21.6757C13.6199 21.655 13.8178 21.7138 13.9724 21.839C14.1269 21.9643 14.2253 22.1458 14.246 22.3437C14.2667 22.5415 14.208 22.7395 14.0827 22.894C13.9574 23.0486 13.7759 23.147 13.578 23.1677C12.5289 23.2775 11.4712 23.2775 10.422 23.1677C10.3241 23.1575 10.2291 23.128 10.1425 23.0811C10.0559 23.0341 9.97938 22.9706 9.91735 22.8941C9.85532 22.8175 9.80897 22.7296 9.78095 22.6351C9.75293 22.5407 9.74378 22.4417 9.75403 22.3437V22.3437Z" fill="black"/>
</svg>
