<svg width="18" height="19" viewBox="0 0 18 19" fill="none" xmlns="http://www.w3.org/2000/svg">
<path d="M9.26953 4.98828C11.7305 4.98828 13.7617 7.01953 13.7617 9.48047C13.7617 11.9805 11.7305 13.9727 9.26953 13.9727C6.76953 13.9727 4.77734 11.9805 4.77734 9.48047C4.77734 7.01953 6.76953 4.98828 9.26953 4.98828ZM9.26953 12.4102C10.8711 12.4102 12.1602 11.1211 12.1602 9.48047C12.1602 7.87891 10.8711 6.58984 9.26953 6.58984C7.62891 6.58984 6.33984 7.87891 6.33984 9.48047C6.33984 11.1211 7.66797 12.4102 9.26953 12.4102ZM14.9727 4.83203C14.9727 4.24609 14.5039 3.77734 13.918 3.77734C13.332 3.77734 12.8633 4.24609 12.8633 4.83203C12.8633 5.41797 13.332 5.88672 13.918 5.88672C14.5039 5.88672 14.9727 5.41797 14.9727 4.83203ZM17.9414 5.88672C18.0195 7.33203 18.0195 11.668 17.9414 13.1133C17.8633 14.5195 17.5508 15.7305 16.5352 16.7852C15.5195 17.8008 14.2695 18.1133 12.8633 18.1914C11.418 18.2695 7.08203 18.2695 5.63672 18.1914C4.23047 18.1133 3.01953 17.8008 1.96484 16.7852C0.949219 15.7305 0.636719 14.5195 0.558594 13.1133C0.480469 11.668 0.480469 7.33203 0.558594 5.88672C0.636719 4.48047 0.949219 3.23047 1.96484 2.21484C3.01953 1.19922 4.23047 0.886719 5.63672 0.808594C7.08203 0.730469 11.418 0.730469 12.8633 0.808594C14.2695 0.886719 15.5195 1.19922 16.5352 2.21484C17.5508 3.23047 17.8633 4.48047 17.9414 5.88672ZM16.0664 14.6367C16.5352 13.5039 16.418 10.7695 16.418 9.48047C16.418 8.23047 16.5352 5.49609 16.0664 4.32422C15.7539 3.58203 15.168 2.95703 14.4258 2.68359C13.2539 2.21484 10.5195 2.33203 9.26953 2.33203C7.98047 2.33203 5.24609 2.21484 4.11328 2.68359C3.33203 2.99609 2.74609 3.58203 2.43359 4.32422C1.96484 5.49609 2.08203 8.23047 2.08203 9.48047C2.08203 10.7695 1.96484 13.5039 2.43359 14.6367C2.74609 15.418 3.33203 16.0039 4.11328 16.3164C5.24609 16.7852 7.98047 16.668 9.26953 16.668C10.5195 16.668 13.2539 16.7852 14.4258 16.3164C15.168 16.0039 15.793 15.418 16.0664 14.6367Z" fill="white"/>
</svg>
