<svg width="18" height="19" viewBox="0 0 18 19" fill="none" xmlns="http://www.w3.org/2000/svg">
<path d="M4.40625 18.2305H0.773438V6.55078H4.40625V18.2305ZM2.57031 4.98828C1.4375 4.98828 0.5 4.01172 0.5 2.83984C0.5 1.70703 1.4375 0.769531 2.57031 0.769531C3.74219 0.769531 4.67969 1.70703 4.67969 2.83984C4.67969 4.01172 3.74219 4.98828 2.57031 4.98828ZM14.3672 18.2305V12.5664C14.3672 11.1992 14.3281 9.48047 12.4531 9.48047C10.5781 9.48047 10.3047 10.9258 10.3047 12.4492V18.2305H6.67188V6.55078H10.1484V8.15234H10.1875C10.6953 7.25391 11.8672 6.27734 13.625 6.27734C17.2969 6.27734 18 8.69922 18 11.8242V18.2305H14.3672Z" fill="white"/>
</svg>
