<svg width="22" height="15" viewBox="0 0 22 15" fill="none" xmlns="http://www.w3.org/2000/svg">
<path d="M21.5312 2.38281C22 4.02344 22 7.53906 22 7.53906C22 7.53906 22 11.0156 21.5312 12.6953C21.2969 13.6328 20.5547 14.3359 19.6562 14.5703C17.9766 15 11.3359 15 11.3359 15C11.3359 15 4.65625 15 2.97656 14.5703C2.07812 14.3359 1.33594 13.6328 1.10156 12.6953C0.632812 11.0156 0.632812 7.53906 0.632812 7.53906C0.632812 7.53906 0.632812 4.02344 1.10156 2.38281C1.33594 1.44531 2.07812 0.703125 2.97656 0.46875C4.65625 0 11.3359 0 11.3359 0C11.3359 0 17.9766 0 19.6562 0.46875C20.5547 0.703125 21.2969 1.44531 21.5312 2.38281ZM9.14844 10.7031L14.6953 7.53906L9.14844 4.375V10.7031Z" fill="white"/>
</svg>
