<?xml version="1.0" standalone="no"?>
<!DOCTYPE svg PUBLIC "-//W3C//DTD SVG 20010904//EN"
 "http://www.w3.org/TR/2001/REC-SVG-20010904/DTD/svg10.dtd">
<svg version="1.0" xmlns="http://www.w3.org/2000/svg"
 width="633.000000pt" height="633.000000pt" viewBox="0 0 633.000000 633.000000"
 preserveAspectRatio="xMidYMid meet">
<metadata>
Created by potrace 1.14, written by Peter Selinger 2001-2017
</metadata>
<g transform="translate(0.000000,633.000000) scale(0.100000,-0.100000)"
fill="#000000" stroke="none">
<path d="M4217 5667 c-80 -83 -440 -457 -540 -560 l-69 -70 667 -667 666 -666
-407 -399 c-224 -220 -523 -515 -666 -655 l-258 -255 116 -120 c318 -328 540
-558 545 -567 4 -6 12 -9 18 -7 6 2 390 382 853 844 464 462 919 912 1012
1001 l169 160 -1018 1017 c-559 559 -1017 1017 -1018 1017 -1 -1 -33 -33 -70
-73z"/>
<path d="M1817 4477 c-453 -462 -1139 -1158 -1464 -1484 l-353 -353 58 -59
c31 -33 332 -337 668 -678 337 -340 763 -771 948 -958 l335 -340 352 351 352
352 -64 62 c-35 34 -251 246 -479 470 -228 224 -505 496 -614 603 l-200 195
145 142 c79 78 331 325 559 550 228 224 469 460 535 524 l119 117 -349 349
c-193 193 -352 350 -355 350 -3 0 -90 -87 -193 -193z"/>
</g>
</svg>
